<svg width="52" height="52" viewBox="0 0 52 52" fill="none" xmlns="http://www.w3.org/2000/svg">
<g clip-path="url(#clip0_9_556)">
<path d="M51.9817 35.1593C51.9009 34.561 50.4666 31.9507 44.0367 28.4298L39.6556 27.2178L35.7696 15.7986L44.7256 9.1389C47.6337 7.45611 46.5627 6.15357 43.8842 6.15449C27.6456 6.15977 20.4602 4.16396 17.0919 14.2673C16.2612 16.7583 14.7448 22.3012 13.4894 27.0106C-0.214325 30.6769 -0.372153 34.0129 0.143175 34.9755L2.54411 39.4624L12.1164 44.0445L16.6326 39.606V44.9641C16.6326 44.9641 25.6648 46.9546 33.626 45.4233C41.5877 43.8921 45.8737 41.9025 45.8737 41.9025L44.6484 38.534L48.477 40.2177L51.4784 36.8153C51.8784 36.3622 52.0614 35.7576 51.9817 35.1593ZM13.8158 32.8584C14.0917 30.9225 14.9779 28.9114 15.2394 27.0724C22.7642 28.1436 30.4034 28.1436 37.9278 27.0724C38.1897 28.9114 39.0759 30.9225 39.3523 32.8584C30.8825 34.0641 22.2852 34.0641 13.8158 32.8584Z" fill="white"/>
</g>
<defs>
<clipPath id="clip0_9_556">
<rect width="52" height="52" fill="white"/>
</clipPath>
</defs>
</svg>
